<svg xmlns="http://www.w3.org/2000/svg" width="121.718" height="30.719" viewBox="0 0 121.718 30.719">
  <defs>
    <style>
      .cls-1 {
        fill: #fff;
        fill-rule: evenodd;
      }
    </style>
  </defs>
  <path id="Vector" class="cls-1" d="M172.009,82.933H167.13V65.141l-8.585,16.9a2.228,2.228,0,0,1-.894.979,2.324,2.324,0,0,1-1.211.333,2.22,2.22,0,0,1-2.048-1.313l-8.623-16.9V82.933h-4.842V55.37a2.944,2.944,0,0,1,.485-1.667,2.431,2.431,0,0,1,1.3-.979,2.133,2.133,0,0,1,.782-0.062,2.376,2.376,0,0,1,1.416.625,2.348,2.348,0,0,1,.5.666L156.44,75.391l11.025-21.438a2.47,2.47,0,0,1,1.173-1.125,2.3,2.3,0,0,1,1.583-.1,2.435,2.435,0,0,1,1.285.979,2.868,2.868,0,0,1,.5,1.667V82.933ZM198.621,67.87a9.4,9.4,0,0,1-.354,2.438,7.609,7.609,0,0,1-1.155,2.417,6.5,6.5,0,0,1-2.067,1.854,5.964,5.964,0,0,1-3.091.75H183.22V70.183h8.734a1.854,1.854,0,0,0,1.527-.666,2.648,2.648,0,0,0,.54-1.687,2.229,2.229,0,0,0-.615-1.667,1.96,1.96,0,0,0-1.452-.6H183.22a1.829,1.829,0,0,0-1.527.688,2.561,2.561,0,0,0-.54,1.667v7.563a2.3,2.3,0,0,0,.6,1.687,2.067,2.067,0,0,0,1.508.6h8.7v5.167H183.22a6.85,6.85,0,0,1-2.179-.4,6.469,6.469,0,0,1-2.16-1.271,7.273,7.273,0,0,1-1.658-2.312,8.187,8.187,0,0,1-.67-3.479v-7.6a9.17,9.17,0,0,1,.354-2.417,7.535,7.535,0,0,1,1.136-2.417,6.658,6.658,0,0,1,2.067-1.875,6.067,6.067,0,0,1,3.11-.75h8.734a6.674,6.674,0,0,1,2.16.4,6.1,6.1,0,0,1,2.16,1.291,6.825,6.825,0,0,1,1.676,2.313A8.043,8.043,0,0,1,198.621,67.87Zm21.565-2.042h-8.455v17.1h-4.9v-17.1h-6.3V60.412h6.3V53.058h4.9v7.354h8.455v5.417ZM243,75.474a9.4,9.4,0,0,1-.354,2.438,7.61,7.61,0,0,1-1.155,2.417,6.488,6.488,0,0,1-2.067,1.854,5.964,5.964,0,0,1-3.091.75H227.6a6.855,6.855,0,0,1-2.179-.4,6.469,6.469,0,0,1-2.16-1.271,7.273,7.273,0,0,1-1.658-2.312,8.2,8.2,0,0,1-.67-3.479,9.4,9.4,0,0,1,.354-2.437,7.535,7.535,0,0,1,1.136-2.417,6.669,6.669,0,0,1,2.067-1.875A6.069,6.069,0,0,1,227.6,68h8.734v5.167H227.6a1.829,1.829,0,0,0-1.527.688,2.562,2.562,0,0,0-.54,1.667,2.232,2.232,0,0,0,.614,1.666,2.129,2.129,0,0,0,1.49.583h8.7a1.854,1.854,0,0,0,1.527-.666,2.562,2.562,0,0,0,.54-1.667V67.87a2.34,2.34,0,0,0-.6-1.687,1.912,1.912,0,0,0-1.471-.625H225.7V60.412h10.634a6.669,6.669,0,0,1,2.16.4,6.1,6.1,0,0,1,2.16,1.291,6.825,6.825,0,0,1,1.676,2.313A8.029,8.029,0,0,1,243,67.87v7.6Zm10.847-19.825a3.675,3.675,0,0,1-.123.993,2.921,2.921,0,0,1-.334.775,2.506,2.506,0,0,1-.481.569,2.9,2.9,0,0,1-.576.394,2.653,2.653,0,0,1-1.172.288l3.034,2.932h-2.247l-3.028-2.931h-1.044V57.043h3.285a1.563,1.563,0,0,0,.5-0.125,1.232,1.232,0,0,0,.391-0.282,1.174,1.174,0,0,0,.257-0.419,1.67,1.67,0,0,0,.089-0.569V54.624a0.5,0.5,0,0,0-.033-0.206,0.207,0.207,0,0,0-.078-0.106,0.189,0.189,0,0,0-.1-0.044,0.718,0.718,0,0,0-.095-0.007h-4.794V61.6h-1.452V53.456a0.911,0.911,0,0,1,.055-0.319,0.876,0.876,0,0,1,.152-0.262,0.728,0.728,0,0,1,.234-0.175,0.681,0.681,0,0,1,.29-0.062h5.515a1.574,1.574,0,0,1,.821.2,1.642,1.642,0,0,1,.542.493,1.891,1.891,0,0,1,.3.638,2.434,2.434,0,0,1,.094.644v1.038Zm8.816,5.95h-6.625a0.667,0.667,0,0,1-.29-0.063,0.779,0.779,0,0,1-.236-0.168,0.881,0.881,0,0,1-.15-0.263,0.908,0.908,0,0,1-.056-0.325V52.637h1.452v7.338h5.9V61.6Z" transform="translate(-140.938 -52.625)"/>
</svg>
